<svg width="26" height="26" viewBox="0 0 26 26" fill="none" xmlns="http://www.w3.org/2000/svg">
<g clip-path="url(#clip0_1319_762)">
<path d="M13.0924 14.8063C12.153 14.8019 11.2197 14.6548 10.3245 14.3698C8.89416 13.8913 7.83179 12.6804 7.54343 11.2C7.22789 9.68014 7.80293 8.07312 9.12078 6.7911C9.26219 6.65338 9.40912 6.52146 9.56159 6.39534C10.9109 5.26568 12.7301 4.8731 14.4252 5.34576C16.0663 5.86955 17.2002 7.36931 17.257 9.09102C17.3184 10.0821 16.9954 11.0587 16.3551 11.8176C15.8613 12.4397 15.0612 12.7335 14.2821 12.5789C13.9635 12.5128 13.6856 12.3198 13.5122 12.0444C13.3567 11.777 13.3168 11.4577 13.4017 11.1601C13.7682 9.77478 14.1409 7.66944 14.1445 7.64811C14.1706 7.50063 14.2733 7.37823 14.414 7.32704C14.5548 7.27584 14.7122 7.30361 14.8269 7.39989C14.9416 7.49618 14.9962 7.64635 14.9702 7.79383C14.9546 7.88142 14.5877 9.9552 14.2122 11.3744C14.1854 11.453 14.1921 11.5392 14.2308 11.6128C14.2887 11.693 14.3762 11.7468 14.4739 11.7626C14.9508 11.8422 15.4325 11.6508 15.7248 11.2657C16.2221 10.6709 16.4712 9.90744 16.4205 9.13381C16.3796 7.76335 15.4809 6.56687 14.1761 6.14565C12.7519 5.75391 11.2261 6.08857 10.0966 7.04042C9.96191 7.15219 9.83095 7.2692 9.7053 7.39158C9.05377 8.02534 8.01336 9.34038 8.36394 11.0293C8.59948 12.2093 9.44222 13.1763 10.5789 13.571C12.5445 14.198 15.3689 14.2735 16.857 12.4231C17.0032 12.2471 17.2636 12.2208 17.442 12.3642C17.6204 12.5076 17.6507 12.7676 17.5102 12.9482C16.4098 14.3167 14.7352 14.8063 13.0924 14.8063Z" fill="#CCCCCC"/>
<path d="M11.6572 12.6343C11.2142 12.6419 10.7821 12.4966 10.4337 12.223C9.62925 11.5792 9.60712 10.4608 9.83264 9.69919C9.90859 9.44555 10.0106 9.20044 10.1369 8.96778C10.4514 8.33332 10.9542 7.81151 11.5766 7.47374C12.3516 7.07158 13.2986 7.22408 13.9082 7.84926C14.2106 8.18069 14.4384 8.57315 14.5762 9.00014C14.6492 9.21682 14.5351 9.45201 14.3197 9.52872C14.1043 9.60543 13.8672 9.49535 13.7867 9.28131C13.6874 8.96585 13.5222 8.67507 13.3022 8.42815C12.9468 8.0647 12.393 7.982 11.9469 8.22577C11.4802 8.48899 11.1051 8.88865 10.8719 9.37112C10.7739 9.55189 10.6948 9.74226 10.6358 9.93921C10.4729 10.4901 10.5087 11.2091 10.9581 11.569C11.4494 11.9635 12.2782 11.7967 12.7446 11.3944C13.0921 11.0815 13.3907 10.7183 13.6304 10.3168C13.708 10.1867 13.8498 10.1086 14.0012 10.1126C14.1527 10.1165 14.2902 10.2019 14.3609 10.3358C14.4316 10.4698 14.4246 10.6315 14.3425 10.7588C14.0585 11.2319 13.7051 11.6595 13.2939 12.0275C12.8356 12.4142 12.2568 12.6288 11.6572 12.6343Z" fill="#CCCCCC"/>
<path d="M23.8885 25.7077H1.25729C0.563225 25.7069 0.000762216 25.1444 0 24.4504V8.94378C6.58821e-06 8.78126 0.0939687 8.6334 0.2411 8.56438C0.388231 8.49535 0.562002 8.51761 0.686984 8.62149L10.9704 17.1679C11.9009 17.9364 13.2459 17.9361 14.176 17.1673L24.4585 8.62149C24.5835 8.5174 24.7574 8.49501 24.9047 8.56406C25.0519 8.63311 25.1459 8.78113 25.1458 8.94378V24.4504C25.1451 25.1444 24.5826 25.7069 23.8885 25.7077ZM0.838194 9.837V24.4504C0.838495 24.6817 1.02596 24.8692 1.25729 24.8695H23.8885C24.1199 24.8693 24.3074 24.6818 24.3076 24.4504V9.837L14.7112 17.8124C13.4704 18.8378 11.6764 18.8381 10.4353 17.8131L0.838194 9.837Z" fill="#CCCCCC"/>
<path d="M0.419507 9.36405C0.236961 9.36421 0.075305 9.2462 0.0198421 9.07229C-0.0356209 8.89837 0.0278686 8.70856 0.176808 8.60301L3.94868 5.92917C4.13753 5.79829 4.39654 5.84386 4.52938 6.03133C4.66221 6.21881 4.61933 6.47828 4.43324 6.61305L0.661368 9.28689C0.59074 9.33715 0.506192 9.36412 0.419507 9.36405Z" fill="#CCCCCC"/>
<path d="M24.7261 9.36405C24.6394 9.36412 24.5549 9.33715 24.4842 9.28689L20.7124 6.61305C20.5263 6.47828 20.4834 6.21881 20.6162 6.03133C20.7491 5.84386 21.0081 5.79829 21.1969 5.92917L24.9688 8.60301C25.1177 8.70856 25.1812 8.89837 25.1258 9.07229C25.0703 9.2462 24.9086 9.36421 24.7261 9.36405Z" fill="#CCCCCC"/>
<path d="M16.4456 3.496C16.3589 3.49605 16.2743 3.46908 16.2035 3.41884L14.2002 1.9981C13.2703 1.21229 11.9114 1.20411 10.9721 1.97866L8.94367 3.41889C8.82151 3.50552 8.66241 3.5204 8.5263 3.45792C8.39019 3.39544 8.29775 3.26509 8.28381 3.11598C8.26986 2.96686 8.33653 2.82164 8.45869 2.735L10.462 1.31426C11.6998 0.302129 13.4816 0.31018 14.7103 1.33346L16.6884 2.73484C16.8375 2.84036 16.9011 3.03026 16.8456 3.20426C16.7901 3.37826 16.6283 3.49628 16.4456 3.496Z" fill="#CCCCCC"/>
<path d="M0.691213 25.4817C0.514592 25.4818 0.356831 25.3712 0.296746 25.2051C0.236662 25.0391 0.287151 24.8531 0.422991 24.7402L9.98679 16.7942C10.1017 16.6964 10.2603 16.668 10.402 16.7198C10.5437 16.7715 10.6467 16.8954 10.6716 17.0441C10.6965 17.1929 10.6396 17.3436 10.5225 17.4387L0.958723 25.3848C0.883635 25.4474 0.788969 25.4817 0.691213 25.4817Z" fill="#CCCCCC"/>
<path d="M24.4527 25.4816C24.355 25.4817 24.2604 25.4474 24.1855 25.3848L14.6217 17.4387C14.5046 17.3436 14.4476 17.1929 14.4726 17.0441C14.4975 16.8954 14.6005 16.7715 14.7422 16.7198C14.8839 16.668 15.0425 16.6964 15.1574 16.7942L24.7209 24.7402C24.8568 24.8531 24.9073 25.0391 24.8472 25.2051C24.7871 25.3712 24.6293 25.4818 24.4527 25.4817V25.4816Z" fill="#CCCCCC"/>
<path d="M20.955 12.4979C20.7235 12.4979 20.5359 12.3103 20.5359 12.0788V3.49897C20.5346 3.50777 20.5178 3.49591 20.4898 3.4957H4.65627C4.63774 3.49456 4.61956 3.50107 4.60598 3.51372L4.61017 12.0788C4.61017 12.3103 4.42253 12.4979 4.19107 12.4979C3.95961 12.4979 3.77197 12.3103 3.77197 12.0788V3.4957C3.78549 3.0204 4.18093 2.64558 4.65627 2.6575H20.4898C20.9651 2.64563 21.3605 3.02042 21.3741 3.4957V12.0788C21.3741 12.3103 21.1864 12.4979 20.955 12.4979Z" fill="#CCCCCC"/>
</g>
<defs>
<clipPath id="clip0_1319_762">
<rect width="25.1458" height="25.1458" fill="white" transform="translate(0 0.5625)"/>
</clipPath>
</defs>
</svg>
