<svg width="26" height="26" viewBox="0 0 26 26" fill="none" xmlns="http://www.w3.org/2000/svg">
<g clip-path="url(#clip0_1319_755)">
<path d="M25.1218 24.9601L21.4383 15.2569C21.4077 15.1763 21.3498 15.109 21.2748 15.0667L17.3514 12.8563L18.4968 11.0402C19.1998 9.92461 19.5714 8.63545 19.5714 7.31205C19.5714 3.45301 16.4319 0.313477 12.5729 0.313477C8.71383 0.313477 5.57429 3.45301 5.57429 7.31205C5.57429 8.63579 5.94608 9.925 6.64947 11.0403C6.66828 11.0702 7.79463 12.8564 7.79463 12.8564L3.87106 15.0667C3.79597 15.109 3.73806 15.1763 3.70746 15.2569L0.024002 24.9601C-0.0310535 25.1051 0.0106433 25.269 0.12817 25.3701C0.245845 25.4713 0.414056 25.488 0.549165 25.4118L6.4706 22.0758L12.392 25.4118C12.5043 25.475 12.6414 25.475 12.7537 25.4118L18.6751 22.0758L24.5965 25.4118C24.653 25.4436 24.7153 25.4592 24.7773 25.4592C24.8636 25.4592 24.9491 25.429 25.0176 25.3702C25.1352 25.269 25.1768 25.1051 25.1218 24.9601ZM12.9413 19.4042C13.1717 19.3228 13.3715 19.1662 13.5071 18.9515C13.5258 18.922 16.6616 13.9501 16.6616 13.9501L18.2587 21.4648L12.9413 24.4605V19.4042ZM7.27261 10.6472C6.64353 9.64972 6.31103 8.49646 6.31103 7.312C6.31103 3.85918 9.12009 1.05012 12.5729 1.05012C16.0257 1.05012 18.8348 3.85918 18.8348 7.312C18.8348 8.49621 18.5024 9.64958 17.8737 10.6472C17.8246 10.7251 12.9711 18.4217 12.8865 18.5547C12.8857 18.5558 12.885 18.557 12.8842 18.5581C12.8159 18.6662 12.6996 18.7307 12.5729 18.7307C12.4462 18.7307 12.3293 18.6659 12.2609 18.5583C12.2116 18.4803 7.34854 10.7685 7.27428 10.6499C7.27374 10.649 7.27315 10.6481 7.27261 10.6472ZM4.34883 15.6431L7.7826 13.7087L7.18441 16.523C7.14212 16.722 7.26913 16.9176 7.46808 16.9599C7.49392 16.9654 7.5197 16.9681 7.54504 16.9681C7.71522 16.9681 7.86816 16.8494 7.90494 16.6762L8.48432 13.9504L11.6384 18.9525C11.7745 19.1666 11.9744 19.3229 12.2045 19.4041V24.4606L6.88718 21.4648L7.59867 18.1174C7.64096 17.9184 7.51395 17.7228 7.315 17.6805C7.1158 17.6379 6.92038 17.7652 6.87809 17.9641L6.14488 21.4136L1.07369 24.2707L4.34883 15.6431ZM19.0009 21.4137L17.3633 13.7086L20.797 15.6431L24.0721 24.2707L19.0009 21.4137Z" fill="#CCCCCC"/>
<path d="M16.6246 7.31256C16.6246 5.07841 14.807 3.26074 12.5728 3.26074C10.3387 3.26074 8.521 5.07841 8.521 7.31256C8.521 9.54671 10.3387 11.3644 12.5728 11.3644C14.807 11.3644 16.6246 9.54671 16.6246 7.31256ZM9.25769 7.31256C9.25769 5.48458 10.7448 3.99744 12.5728 3.99744C14.4008 3.99744 15.8879 5.48458 15.8879 7.31256C15.8879 9.14055 14.4008 10.6277 12.5728 10.6277C10.7448 10.6277 9.25769 9.14055 9.25769 7.31256Z" fill="#CCCCCC"/>
<path d="M15.1512 7.31183C15.1512 5.89011 13.9945 4.7334 12.5728 4.7334C11.1511 4.7334 9.99438 5.89011 9.99438 7.31183C9.99438 8.73355 11.1511 9.89026 12.5728 9.89026C13.9945 9.89026 15.1512 8.73355 15.1512 7.31183ZM10.7311 7.31183C10.7311 6.29627 11.5573 5.47009 12.5728 5.47009C13.5884 5.47009 14.4146 6.29627 14.4146 7.31183C14.4146 8.32739 13.5884 9.15356 12.5728 9.15356C11.5573 9.15356 10.7311 8.32739 10.7311 7.31183Z" fill="#CCCCCC"/>
</g>
<defs>
<clipPath id="clip0_1319_755">
<rect width="25.1458" height="25.1458" fill="white" transform="translate(0 0.313477)"/>
</clipPath>
</defs>
</svg>
