<svg width="26" height="26" viewBox="0 0 26 26" fill="none" xmlns="http://www.w3.org/2000/svg">
<g clip-path="url(#clip0_1319_776)">
<path d="M14.3132 0.854492C14.0419 0.854492 13.822 1.07435 13.822 1.34562C13.822 1.61689 14.0419 1.83675 14.3132 1.83675C19.7445 1.83675 24.1632 6.25557 24.1632 11.6868C24.1632 11.958 24.3832 12.1779 24.6543 12.1779C24.9256 12.1779 25.1454 11.958 25.1454 11.6868C25.1454 5.71399 20.2861 0.854492 14.3132 0.854492Z" fill="#CCCCCC"/>
<path d="M21.6999 12.1787C21.9711 12.1787 22.191 11.9587 22.191 11.6876C22.191 7.34359 18.657 3.80957 14.3132 3.80957C14.0419 3.80957 13.822 4.02962 13.822 4.3007C13.822 4.57197 14.0419 4.79183 14.3132 4.79183C18.1154 4.79183 21.2087 7.88518 21.2087 11.6876C21.2087 11.9587 21.4286 12.1787 21.6999 12.1787Z" fill="#CCCCCC"/>
<path d="M18.2537 11.6875C18.2537 11.9585 18.4736 12.1786 18.7448 12.1786C19.0161 12.1786 19.236 11.9585 19.236 11.6875C19.236 8.973 17.0276 6.76465 14.3132 6.76465C14.0419 6.76465 13.822 6.98451 13.822 7.25559C13.822 7.52686 14.0419 7.74672 14.3132 7.74672C16.486 7.74672 18.2537 9.5144 18.2537 11.6875Z" fill="#CCCCCC"/>
<path d="M13.822 10.2099C13.822 10.481 14.0419 10.7008 14.3132 10.7008C14.8568 10.7008 15.2992 11.1432 15.2992 11.6871C15.2992 11.9582 15.5191 12.1782 15.7904 12.1782C16.0615 12.1782 16.2815 11.9582 16.2815 11.6871C16.2815 10.6016 15.3984 9.71875 14.3132 9.71875C14.0419 9.71875 13.822 9.93861 13.822 10.2099Z" fill="#CCCCCC"/>
<path d="M9.2054 16.8007C9.2054 17.072 8.98555 17.2918 8.71427 17.2918C8.443 17.2918 8.22314 17.072 8.22314 16.8007C8.22314 16.5296 8.443 16.3096 8.71427 16.3096C8.98555 16.3096 9.2054 16.5296 9.2054 16.8007Z" fill="#CCCCCC"/>
<path d="M13.4585 25.4032C15.6949 26.4992 18.3854 26.0432 20.1538 24.2748L21.1693 23.2593C21.7206 22.7085 21.7208 21.8162 21.1695 21.2651L17.2458 17.3418C16.6954 16.7906 15.8029 16.7898 15.2519 17.3416L13.5848 19.0089C13.2582 19.3355 12.7543 19.402 12.3867 19.1674C11.7874 18.7843 11.2043 18.3618 10.6539 17.9118C10.4438 17.7401 10.1346 17.7711 9.96289 17.981C9.79118 18.1911 9.82226 18.5005 10.0321 18.672C10.6121 19.1463 11.2262 19.5914 11.858 19.995C12.611 20.476 13.6293 20.3534 14.2793 19.7034L15.9468 18.0359C16.1135 17.869 16.3836 17.8686 16.5511 18.0361L20.475 21.9595C20.6421 22.1268 20.6425 22.3973 20.475 22.5644L19.4593 23.5803C17.9861 25.0535 15.7484 25.4316 13.8908 24.5213C7.08536 21.1841 3.38271 15.8926 1.47498 12.041C0.562359 10.1991 0.941258 7.96984 2.41791 6.49357L3.41129 5.50038C3.57782 5.33347 3.84813 5.33289 4.01542 5.50057L7.93966 9.42462C8.1058 9.59057 8.10753 9.86107 7.93928 10.0289L6.27212 11.6963C5.62214 12.3463 5.49955 13.3646 5.98052 14.1178C6.26387 14.5611 6.5693 14.9986 6.88853 15.4177C7.05275 15.6336 7.36086 15.6752 7.57669 15.511C7.79252 15.3468 7.83434 15.0386 7.66992 14.8226C7.36719 14.4249 7.07712 14.0098 6.80815 13.5891C6.57352 13.2213 6.64009 12.7173 6.96661 12.3908L8.63357 10.7238C9.18475 10.1734 9.18533 9.28073 8.63396 8.72994L4.7101 4.80627C4.15988 4.2551 3.26722 4.25433 2.71642 4.80608L1.72342 5.79908C-0.0515525 7.57348 -0.50508 10.2572 0.594782 12.4771C2.57024 16.465 6.40527 21.9446 13.4585 25.4032Z" fill="#CCCCCC"/>
</g>
<defs>
<clipPath id="clip0_1319_776">
<rect width="25.1458" height="25.1458" fill="white" transform="translate(0 0.854492)"/>
</clipPath>
</defs>
</svg>
