<svg width="0" height="0" class="hidden">
  <symbol xmlns="http://www.w3.org/2000/svg" viewBox="0 0 31 24" id="arrow">
    <path d="M30.0607 13.0607C30.6464 12.4749 30.6464 11.5251 30.0607 10.9393L20.5147 1.3934C19.9289 0.807611 18.9792 0.807611 18.3934 1.3934C17.8076 1.97919 17.8076 2.92893 18.3934 3.51472L26.8787 12L18.3934 20.4853C17.8076 21.0711 17.8076 22.0208 18.3934 22.6066C18.9792 23.1924 19.9289 23.1924 20.5147 22.6066L30.0607 13.0607ZM0 13.5H29V10.5H0V13.5Z"></path>
  </symbol>
  <symbol xmlns="http://www.w3.org/2000/svg" viewBox="0 0 52 52" id="household">
    <path d="M44.3935 24.6648V23.8016C44.3935 21.4587 43.4628 19.2119 41.8062 17.5553C40.1496 15.8987 37.9027 14.968 35.5599 14.968C33.2171 14.968 30.9702 15.8987 29.3136 17.5553C27.657 19.2119 26.7263 21.4587 26.7263 23.8016V27.0138H23.5141C23.3011 27.0138 23.0969 27.0984 22.9463 27.249C22.7957 27.3996 22.7111 27.6038 22.7111 27.8168V31.029C22.7111 31.242 22.7957 31.4463 22.9463 31.5969C23.0969 31.7475 23.3011 31.8321 23.5141 31.8321H23.5944L24.3549 39.0595H21.105V4.5283C21.105 3.88935 20.8511 3.27657 20.3993 2.82477C19.9475 2.37296 19.3348 2.11914 18.6958 2.11914C18.0569 2.11914 17.4441 2.37296 16.9923 2.82477C16.5405 3.27657 16.2867 3.88935 16.2867 4.5283V39.0595H8.25613C7.83032 39.06 7.4221 39.2294 7.121 39.5305C6.81991 39.8316 6.65053 40.2398 6.65003 40.6656V42.9759L5.06792 49.3045C5.03832 49.4229 5.0361 49.5465 5.06142 49.6658C5.08674 49.7852 5.13893 49.8972 5.21403 49.9934C5.28913 50.0896 5.38517 50.1674 5.49484 50.2209C5.60451 50.2745 5.72494 50.3023 5.84698 50.3023H43.5904C43.8034 50.3023 44.0077 50.2177 44.1583 50.0671C44.3089 49.9165 44.3935 49.7122 44.3935 49.4992V46.3292L45.527 35.561C45.9152 35.3481 46.2388 35.0342 46.4633 34.6525C46.6878 34.2709 46.8051 33.8356 46.8026 33.3928V27.616C46.8018 26.9221 46.5618 26.2496 46.1229 25.712C45.6841 25.1744 45.0733 24.8046 44.3935 24.6648ZM28.3324 23.8016C28.3324 22.8524 28.5194 21.9126 28.8826 21.0357C29.2458 20.1588 29.7782 19.3621 30.4493 18.691C31.1204 18.0198 31.9172 17.4875 32.7941 17.1242C33.671 16.761 34.6108 16.5741 35.5599 16.5741C36.509 16.5741 37.4489 16.761 38.3257 17.1242C39.2026 17.4875 39.9994 18.0198 40.6705 18.691C41.3416 19.3621 41.874 20.1588 42.2372 21.0357C42.6004 21.9126 42.7874 22.8524 42.7874 23.8016V24.6046H35.3591C34.6652 24.6054 33.9927 24.8455 33.4551 25.2843C32.9175 25.7232 32.5476 26.334 32.4079 27.0138H28.3324V23.8016ZM24.3172 28.6199H32.3477V30.226H24.3172V28.6199ZM25.2092 31.8321H32.3477V33.394C32.3491 33.7218 32.4152 34.046 32.5422 34.3482C32.6693 34.6503 32.8548 34.9244 33.0881 35.1546C33.3118 35.378 33.578 35.5544 33.8709 35.6734C34.1639 35.7923 34.4777 35.8514 34.7938 35.8472C35.3736 35.8369 35.9305 35.6187 36.363 35.2323C36.8042 35.6283 37.3762 35.8473 37.9691 35.8473C38.5619 35.8473 39.1339 35.6283 39.5752 35.2323C40.0163 35.6281 40.5881 35.8471 41.1807 35.8472C41.7734 35.8474 42.3452 35.6287 42.7866 35.2331C43.0981 35.5131 43.4778 35.706 43.8876 35.7926L42.8677 45.484H31.3686L30.7416 42.9759V40.6656C30.7411 40.2398 30.5717 39.8316 30.2706 39.5305C29.9695 39.2294 29.5613 39.06 29.1355 39.0595H25.9697L25.2092 31.8321ZM17.8928 4.5283C17.8928 4.31531 17.9774 4.11106 18.128 3.96045C18.2786 3.80985 18.4828 3.72525 18.6958 3.72525C18.9088 3.72525 19.1131 3.80985 19.2637 3.96045C19.4143 4.11106 19.4989 4.31531 19.4989 4.5283V39.0595H17.8928V4.5283ZM8.25613 40.6656H29.1355V42.2718H8.25613V40.6656ZM10.0877 48.6962L11.2923 43.8779H12.849L11.6444 48.6962H10.0877ZM8.08006 43.8779H9.63678L8.4322 48.6962H6.87549L8.08006 43.8779ZM14.5045 43.8779H16.1801L15.5778 48.6962H13.2999L14.5045 43.8779ZM17.1963 48.6962L17.7986 43.8779H19.593L20.1953 48.6962H17.1963ZM21.8139 48.6962L21.2116 43.8779H22.8871L24.0917 48.6962H21.8139ZM25.7472 48.6962L24.5426 43.8779H26.0994L27.3039 48.6962H25.7472ZM28.9594 48.6962L27.7548 43.8779H29.3116L30.5161 48.6962H28.9594ZM42.7874 48.6962H32.1716L31.7701 47.0901H42.7874V48.6962ZM45.1965 31.029V33.3928C45.2003 33.6044 45.1236 33.8095 44.982 33.9668C44.8404 34.1241 44.6445 34.2218 44.4336 34.2402C44.3249 34.2457 44.2163 34.229 44.1142 34.1911C44.0122 34.1533 43.9189 34.0951 43.84 34.02C43.7612 33.945 43.6984 33.8548 43.6555 33.7547C43.6126 33.6547 43.5904 33.547 43.5904 33.4382V30.226H41.9843V33.4382C41.9843 33.6512 41.8997 33.8554 41.7491 34.006C41.5985 34.1566 41.3943 34.2412 41.1813 34.2412C40.9683 34.2412 40.764 34.1566 40.6134 34.006C40.4628 33.8554 40.3782 33.6512 40.3782 33.4382V30.226H38.7721V33.4382C38.7721 33.6512 38.6875 33.8554 38.5369 34.006C38.3863 34.1566 38.182 34.2412 37.9691 34.2412C37.7561 34.2412 37.5518 34.1566 37.4012 34.006C37.2506 33.8554 37.166 33.6512 37.166 33.4382V30.226H35.5599V33.4382C35.5601 33.649 35.4773 33.8515 35.3294 34.0018C35.1815 34.1521 34.9804 34.2381 34.7695 34.2412H34.7585C34.554 34.2392 34.3586 34.1562 34.2152 34.0104C34.1333 33.9299 34.068 33.834 34.0232 33.7283C33.9785 33.6225 33.955 33.509 33.9542 33.3941V27.616C33.9546 27.2435 34.1028 26.8862 34.3663 26.6228C34.6297 26.3593 34.9869 26.2111 35.3595 26.2107H43.7916C44.1642 26.2111 44.5214 26.3593 44.7849 26.6228C45.0483 26.8862 45.1965 27.2435 45.1969 27.616L45.1965 31.029Z"/>
    <path d="M41.1813 39.8628H39.5752V43.8781H41.1813V39.8628Z"/>
    <path d="M41.1813 36.6504H39.5752V38.2565H41.1813V36.6504Z"/>
    <path d="M9.90355 28.0707C9.95687 28.2305 10.0591 28.3696 10.1958 28.4681C10.3326 28.5666 10.4968 28.6196 10.6653 28.6196C10.8339 28.6196 10.9981 28.5666 11.1348 28.4681C11.2716 28.3696 11.3738 28.2305 11.4271 28.0707C11.6385 27.4417 11.9926 26.8702 12.4618 26.401C12.931 25.9318 13.5025 25.5777 14.1315 25.3664C14.2915 25.3131 14.4306 25.2109 14.5292 25.0741C14.6277 24.9374 14.6808 24.7731 14.6808 24.6045C14.6808 24.4359 14.6277 24.2716 14.5292 24.1349C14.4306 23.9981 14.2915 23.8959 14.1315 23.8426C13.5025 23.6313 12.931 23.2772 12.4618 22.808C11.9926 22.3388 11.6385 21.7673 11.4271 21.1383C11.3738 20.9785 11.2716 20.8394 11.1348 20.7409C10.9981 20.6424 10.8339 20.5894 10.6653 20.5894C10.4968 20.5894 10.3326 20.6424 10.1958 20.7409C10.0591 20.8394 9.95687 20.9785 9.90355 21.1383C9.69221 21.7673 9.33806 22.3388 8.86886 22.808C8.39966 23.2772 7.82816 23.6313 7.19917 23.8426C7.03923 23.8959 6.90012 23.9981 6.80153 24.1349C6.70295 24.2716 6.6499 24.4359 6.6499 24.6045C6.6499 24.7731 6.70295 24.9374 6.80153 25.0741C6.90012 25.2109 7.03923 25.3131 7.19917 25.3664C7.82816 25.5777 8.39966 25.9318 8.86886 26.401C9.33806 26.8702 9.69221 27.4417 9.90355 28.0707ZM10.6653 23.1557C11.0607 23.7188 11.5509 24.2091 12.114 24.6045C11.5509 24.9999 11.0607 25.4901 10.6653 26.0533C10.27 25.4901 9.77977 24.9999 9.21664 24.6045C9.77977 24.2091 10.27 23.7188 10.6653 23.1557Z"/>
    <path d="M49.466 14.2059C48.837 13.9946 48.2655 13.6404 47.7963 13.1713C47.3271 12.7021 46.9729 12.1306 46.7616 11.5016C46.7083 11.3417 46.606 11.2027 46.4693 11.1042C46.3326 11.0057 46.1683 10.9526 45.9998 10.9526C45.8313 10.9526 45.667 11.0057 45.5303 11.1042C45.3936 11.2027 45.2913 11.3417 45.238 11.5016C45.0267 12.1306 44.6725 12.7021 44.2033 13.1713C43.7341 13.6404 43.1626 13.9946 42.5336 14.2059C42.3737 14.2592 42.2346 14.3614 42.136 14.4982C42.0374 14.6349 41.9844 14.7992 41.9844 14.9678C41.9844 15.1364 42.0374 15.3007 42.136 15.4374C42.2346 15.5741 42.3737 15.6764 42.5336 15.7297C43.1626 15.941 43.7341 16.2951 44.2033 16.7643C44.6725 17.2335 45.0267 17.805 45.238 18.4339C45.2913 18.5938 45.3936 18.7329 45.5303 18.8314C45.667 18.9299 45.8313 18.9829 45.9998 18.9829C46.1683 18.9829 46.3326 18.9299 46.4693 18.8314C46.606 18.7329 46.7083 18.5938 46.7616 18.4339C46.9729 17.805 47.3271 17.2335 47.7963 16.7643C48.2655 16.2951 48.837 15.941 49.466 15.7297C49.6259 15.6764 49.765 15.5741 49.8636 15.4374C49.9622 15.3007 50.0153 15.1364 50.0153 14.9678C50.0153 14.7992 49.9622 14.6349 49.8636 14.4982C49.765 14.3614 49.6259 14.2592 49.466 14.2059ZM45.9998 16.4166C45.6044 15.8534 45.1142 15.3632 44.5511 14.9678C45.1142 14.5723 45.6044 14.0821 45.9998 13.519C46.3952 14.0821 46.8854 14.5723 47.4485 14.9678C46.8854 15.3632 46.3952 15.8534 45.9998 16.4166Z"/>
    <path d="M5.84698 38.2565C6.01552 38.2565 6.17978 38.2034 6.3165 38.1049C6.45323 38.0063 6.55548 37.8673 6.60878 37.7074C6.82011 37.0784 7.17426 36.5069 7.64347 36.0377C8.11267 35.5685 8.68417 35.2144 9.31316 35.0031C9.47309 34.9498 9.61221 34.8476 9.71079 34.7108C9.80937 34.5741 9.86242 34.4098 9.86242 34.2412C9.86242 34.0726 9.80937 33.9083 9.71079 33.7716C9.61221 33.6348 9.47309 33.5326 9.31316 33.4793C8.68417 33.268 8.11267 32.9139 7.64347 32.4447C7.17426 31.9755 6.82011 31.404 6.60878 30.775C6.55546 30.6152 6.4532 30.4761 6.31648 30.3776C6.17976 30.2791 6.0155 30.2261 5.84698 30.2261C5.67846 30.2261 5.51421 30.2791 5.37749 30.3776C5.24077 30.4761 5.13851 30.6152 5.08519 30.775C4.87385 31.404 4.5197 31.9755 4.0505 32.4447C3.5813 32.9139 3.0098 33.268 2.38081 33.4793C2.22087 33.5326 2.08176 33.6348 1.98318 33.7716C1.88459 33.9083 1.83154 34.0726 1.83154 34.2412C1.83154 34.4098 1.88459 34.5741 1.98318 34.7108C2.08176 34.8476 2.22087 34.9498 2.38081 35.0031C3.0098 35.2144 3.5813 35.5685 4.0505 36.0377C4.5197 36.5069 4.87385 37.0784 5.08519 37.7074C5.13849 37.8673 5.24074 38.0063 5.37746 38.1049C5.51418 38.2034 5.67845 38.2565 5.84698 38.2565ZM5.84698 32.7924C6.24237 33.3556 6.73256 33.8458 7.29569 34.2412C6.73256 34.6366 6.24237 35.1269 5.84698 35.69C5.45159 35.1269 4.96141 34.6366 4.39828 34.2412C4.96141 33.8458 5.45159 33.3556 5.84698 32.7924Z"/>
  </symbol>
</svg>